<?xml version="1.0" encoding="UTF-8" standalone="no"?>
<!-- Created with Inkscape (http://www.inkscape.org/) -->

<svg
   xmlns:dc="http://purl.org/dc/elements/1.1/"
   xmlns:cc="http://creativecommons.org/ns#"
   xmlns:rdf="http://www.w3.org/1999/02/22-rdf-syntax-ns#"
   xmlns:svg="http://www.w3.org/2000/svg"
   xmlns="http://www.w3.org/2000/svg"
   xmlns:xlink="http://www.w3.org/1999/xlink"
   xmlns:sodipodi="http://sodipodi.sourceforge.net/DTD/sodipodi-0.dtd"
   xmlns:inkscape="http://www.inkscape.org/namespaces/inkscape"
   width="210mm"
   height="297mm"
   viewBox="0 0 744.09448819 1052.3622047"
   id="svg2"
   version="1.1"
   inkscape:version="0.91 r13725"
   sodipodi:docname="BPS.svg"
   inkscape:export-filename="D:\scripting\sandbox-fm\scripts\bps\BPS.png"
   inkscape:export-xdpi="300"
   inkscape:export-ydpi="300">
  <defs
     id="defs4">
    <linearGradient
       inkscape:collect="always"
       id="linearGradient4313">
      <stop
         style="stop-color:#207fbb;stop-opacity:1;"
         offset="0"
         id="stop4315" />
      <stop
         id="stop4323"
         offset="0.48873782"
         style="stop-color:#2063bb;stop-opacity:1" />
      <stop
         style="stop-color:#207fbb;stop-opacity:1"
         offset="1"
         id="stop4317" />
    </linearGradient>
    <linearGradient
       inkscape:collect="always"
       xlink:href="#linearGradient4313"
       id="linearGradient4321"
       x1="120"
       y1="566.82617"
       x2="200"
       y2="566.82617"
       gradientUnits="userSpaceOnUse" />
  </defs>
  <sodipodi:namedview
     id="base"
     pagecolor="#ffffff"
     bordercolor="#666666"
     borderopacity="1.0"
     inkscape:pageopacity="0.0"
     inkscape:pageshadow="2"
     inkscape:zoom="1.4"
     inkscape:cx="226.78016"
     inkscape:cy="511.58172"
     inkscape:document-units="px"
     inkscape:current-layer="layer1"
     showgrid="false"
     inkscape:window-width="1920"
     inkscape:window-height="1028"
     inkscape:window-x="1358"
     inkscape:window-y="-8"
     inkscape:window-maximized="1"
     showguides="false">
    <inkscape:grid
       type="xygrid"
       id="grid4173" />
  </sodipodi:namedview>
  <metadata
     id="metadata7">
    <rdf:RDF>
      <cc:Work
         rdf:about="">
        <dc:format>image/svg+xml</dc:format>
        <dc:type
           rdf:resource="http://purl.org/dc/dcmitype/StillImage" />
        <dc:title />
      </cc:Work>
    </rdf:RDF>
  </metadata>
  <g
     inkscape:groupmode="layer"
     id="layer2"
     inkscape:label="Old"
     style="display:none">
    <path
       style="fill:#207fbb;fill-opacity:1;fill-rule:evenodd;stroke:none;stroke-width:1px;stroke-linecap:butt;stroke-linejoin:miter;stroke-opacity:1"
       d="m 120,862.3622 0,-566.60425 80,2.5e-4 0,566.604 z"
       id="path4136-2"
       inkscape:connector-curvature="0"
       sodipodi:nodetypes="ccccc" />
    <ellipse
       style="color:#000000;clip-rule:nonzero;display:inline;overflow:visible;visibility:visible;opacity:1;isolation:auto;mix-blend-mode:normal;color-interpolation:sRGB;color-interpolation-filters:linearRGB;solid-color:#000000;solid-opacity:1;fill:#207fbb;fill-opacity:1;fill-rule:nonzero;stroke:none;stroke-width:1;stroke-linecap:butt;stroke-linejoin:round;stroke-miterlimit:4;stroke-dasharray:1, 2;stroke-dashoffset:0;stroke-opacity:1;color-rendering:auto;image-rendering:auto;shape-rendering:auto;text-rendering:auto;enable-background:accumulate"
       id="path4138-9"
       cx="160.53572"
       cy="296.11221"
       rx="32.67857"
       ry="24.821428" />
  </g>
  <g
     inkscape:label="Layer 1"
     inkscape:groupmode="layer"
     id="layer1"
     style="display:inline">
    <path
       style="fill:url(#linearGradient4321);fill-opacity:1;fill-rule:evenodd;stroke:#000000;stroke-width:0.5;stroke-linecap:butt;stroke-linejoin:miter;stroke-miterlimit:4;stroke-dasharray:none;stroke-opacity:1"
       d="m 160.53516,271.29102 c -17.85765,0.009 -32.39916,10.90416 -32.6543,24.46679 l -7.88086,0 0,381.60439 80,0 0,-381.60439 -6.80078,0 c -0.2552,-13.56551 -14.80261,-24.46215 -32.66406,-24.46679 z"
       id="path4136"
       inkscape:connector-curvature="0"
       sodipodi:nodetypes="cccccccc" />
    <path
       style="fill:#ffffff;fill-opacity:1"
       d="m 152.90344,293.69365 c -0.42757,-0.21698 -0.75131,-0.59728 -0.90876,-1.06758 -0.057,-0.17038 -0.10276,-0.86167 -0.10276,-1.55401 0,-1.04024 0.031,-1.33001 0.18694,-1.74677 0.26134,-0.6985 0.93978,-1.41444 1.69116,-1.78463 l 0.59999,-0.2956 1.4469,0 1.44692,0 0,3.25023 0,3.25023 -0.63199,0 -0.63199,0 -0.0281,-0.44127 -0.0281,-0.44127 -0.28797,0.27539 c -0.73857,0.70633 -1.96654,0.95406 -2.7524,0.55528 z m 1.65186,-1.10933 c 0.24828,-0.11631 0.66472,-0.40407 0.92542,-0.63948 l 0.47399,-0.42801 0,-1.62984 0,-1.62985 -0.62397,0.0523 c -0.75327,0.0631 -1.23368,0.29148 -1.65919,0.7886 -0.39553,0.46209 -0.51565,0.93046 -0.51565,2.01059 0,1.04415 0.10952,1.39548 0.48612,1.55939 0.3734,0.16253 0.39106,0.16091 0.91328,-0.0837 z m 5.10106,1.18716 c -0.22345,-0.0496 -0.43612,-0.13664 -0.47261,-0.19347 -0.0999,-0.15562 -0.0823,-0.9422 0.0225,-1.00698 0.0504,-0.0312 0.3246,-0.007 0.60942,0.0528 0.2848,0.0602 0.86316,0.11126 1.28524,0.11351 0.93153,0.005 1.31015,-0.15306 1.42667,-0.5955 0.16915,-0.64225 -0.0987,-0.88291 -1.32858,-1.19381 -1.11565,-0.28202 -1.3355,-0.3861 -1.70535,-0.80734 -0.31438,-0.35806 -0.42274,-0.77466 -0.35586,-1.36809 0.0999,-0.88585 0.90208,-1.53583 2.03492,-1.64871 0.68001,-0.0678 2.02779,0.0337 2.28643,0.17211 0.21878,0.11709 0.24841,0.9628 0.0366,1.04408 -0.0732,0.0281 -0.48801,0.004 -0.92173,-0.0539 -1.37959,-0.18359 -2.10603,0.0565 -2.12438,0.70225 -0.005,0.16438 0.0512,0.35861 0.12424,0.43161 0.073,0.073 0.58558,0.25155 1.13906,0.39676 1.14212,0.29965 1.40651,0.41834 1.75973,0.79003 0.28428,0.29915 0.4273,0.7156 0.42657,1.24208 -0.002,1.37079 -0.97256,2.04288 -2.92068,2.02232 -0.50375,-0.005 -1.09873,-0.0502 -1.32218,-0.0998 z m 12.23351,-0.0168 c -0.81686,-0.25834 -1.26165,-0.63118 -1.57267,-1.31826 -0.1594,-0.35214 -0.18417,-0.59361 -0.18588,-1.81217 -0.002,-1.59527 0.091,-2.0103 0.57993,-2.58153 0.1657,-0.19358 0.51899,-0.47107 0.78509,-0.61663 0.41793,-0.22863 0.60137,-0.26952 1.34709,-0.30037 0.7433,-0.0308 0.92849,-0.008 1.33236,0.16609 0.61212,0.26332 0.96483,0.67264 1.09247,1.26782 0.11428,0.53286 0.059,0.97151 -0.18299,1.45315 -0.36563,0.72762 -1.03984,0.9791 -2.62494,0.9791 l -1.06702,0 0,0.31889 c 0,1.27739 1.24652,1.79676 2.87071,1.1961 0.263,-0.0973 0.53723,-0.15418 0.60942,-0.12648 0.14659,0.0562 0.1847,0.825 0.0514,1.03545 -0.23221,0.36642 -2.23917,0.59049 -3.0349,0.33884 z m 1.63446,-3.94005 c 0.34715,-0.13199 0.48103,-0.34502 0.48435,-0.7707 0.005,-0.56532 -0.30029,-0.80586 -1.0201,-0.80526 -0.9108,6.6e-4 -1.41854,0.42028 -1.55706,1.28654 l -0.0613,0.38325 0.95364,0 c 0.52451,0 1.06471,-0.0422 1.20045,-0.0938 z m -29.08463,3.8632 c -0.0238,-0.0621 -0.0327,-2.08331 -0.0197,-4.49164 l 0.0235,-4.37878 2.0314,0 c 2.00489,0 2.038,0.003 2.53761,0.23737 0.85845,0.40254 1.20893,1.07017 1.14719,2.18526 -0.0413,0.74573 -0.23393,1.20779 -0.69632,1.67018 -0.21944,0.21944 -0.28035,0.33098 -0.19607,0.35907 0.27931,0.0931 0.81883,0.68794 0.96054,1.05902 0.20988,0.54954 0.14608,1.74534 -0.12067,2.26208 -0.26331,0.51008 -0.7436,0.90576 -1.3,1.07099 -0.61752,0.18338 -4.29877,0.20568 -4.36744,0.0265 z m 3.8829,-1.18916 c 0.42271,-0.17662 0.62895,-0.59615 0.62488,-1.27108 -0.004,-0.6353 -0.12086,-0.89291 -0.51469,-1.13305 -0.24504,-0.14941 -0.45826,-0.17545 -1.43879,-0.17574 l -1.15112,-3.6e-4 0,1.35426 0,1.35427 1.08631,0 c 0.73461,0 1.18573,-0.0415 1.39341,-0.12832 z m 0.004,-4.14307 c 0.57919,-0.57919 0.64217,-1.65261 0.1226,-2.08979 -0.26143,-0.21999 -0.32153,-0.22957 -1.43959,-0.22957 l -1.16676,0 0,1.30912 0,1.30912 1.09243,0 1.09244,0 0.29888,-0.29888 z m 18.90322,5.32216 c -0.52596,-0.19059 -0.86249,-0.48092 -1.08785,-0.93855 -0.19858,-0.40323 -0.21257,-0.54545 -0.23967,-2.43704 l -0.0288,-2.00882 -0.49036,0 -0.49036,0 0,-0.54171 0,-0.5417 0.49657,0 0.49656,0 0,-0.71175 c 0,-0.78779 0.0269,-0.81905 0.70564,-0.82185 0.5662,-0.003 0.64862,0.10649 0.64862,0.85637 l 0,0.67069 0.88027,0.0258 0.88028,0.0258 0,0.49657 0,0.49656 -0.88028,0.0258 -0.88027,0.0258 0,1.85349 c 0,2.34186 0.0515,2.4645 1.03827,2.47197 0.92183,0.007 0.96063,0.033 0.92958,0.62268 l -0.0267,0.50751 -0.81256,0.0203 c -0.49436,0.0123 -0.94037,-0.0261 -1.13893,-0.098 z m 9.82126,0.0627 c -0.0331,-0.0331 -0.0602,-1.27225 -0.0602,-2.75367 l 0,-2.69347 -0.5417,0 -0.5417,0 0,-0.54171 0,-0.5417 1.17369,0 1.1737,0 0,3.29537 0,3.29537 -0.5718,0 c -0.3145,0 -0.59889,-0.0271 -0.632,-0.0602 z m -0.0228,-7.73692 c -0.0259,-0.0676 -0.0349,-0.36219 -0.0197,-0.65457 l 0.0275,-0.53159 0.58685,0 0.58685,0 0.0265,0.65456 0.0265,0.65456 -0.59364,0 c -0.41765,0 -0.60762,-0.0365 -0.64082,-0.12296 z"
       id="path4156"
       inkscape:connector-curvature="0" />
    <path
       style="fill:#ffffff;fill-opacity:1"
       d="m 148.76724,304.11008 0,-0.32679 0.43632,-0.0396 c 0.54957,-0.0498 0.87002,-0.23235 1.05582,-0.60138 0.13498,-0.26808 0.14724,-0.45997 0.16834,-2.63652 l 0.0228,-2.34739 -0.47768,0 -0.47769,0 0,-0.36394 0,-0.36394 0.83706,0 0.83706,0 0,2.67993 c 0,2.97149 -0.0296,3.21422 -0.45116,3.69429 -0.34335,0.39105 -0.73344,0.55939 -1.38673,0.5984 l -0.5641,0.0337 0,-0.32679 z m 18.6336,-6.1e-4 0,-0.32509 0.85526,-0.0418 c 1.2164,-0.0595 1.66248,-0.24779 1.91755,-0.80944 0.11432,-0.25171 0.1993,-1.0626 0.11136,-1.0626 -0.015,0 -0.21049,0.081 -0.43434,0.17999 -1.01277,0.4479 -1.96607,0.35211 -2.47129,-0.24831 -0.30002,-0.35656 -0.37911,-0.69411 -0.3762,-1.6058 0.002,-0.76214 0.0212,-0.87775 0.21003,-1.29179 0.24738,-0.54253 0.68588,-0.97256 1.2667,-1.24226 0.37757,-0.17532 0.50885,-0.19421 1.52719,-0.21971 l 1.1141,-0.0279 -0.0223,2.71921 c -0.0251,3.06347 -0.02,3.03189 -0.58748,3.61155 -0.47016,0.48022 -0.90973,0.61696 -2.10975,0.6563 l -1.00083,0.0328 0,-0.3251 z m 2.44323,-2.69298 0.43188,-0.17356 0.0196,-1.5423 0.0196,-1.54229 -0.60195,6.1e-4 c -1.32277,0.002 -1.94851,0.6712 -1.94851,2.08522 0,1.08629 0.30512,1.4468 1.16944,1.38176 0.26288,-0.0198 0.67231,-0.11408 0.90985,-0.20954 z m -6.37311,1.25188 c -0.82403,-0.17242 -1.37822,-0.68939 -1.53173,-1.42885 -0.13643,-0.65718 -0.0626,-2.2358 0.12395,-2.64954 0.18168,-0.40298 0.58746,-0.81094 1.0101,-1.01554 0.66517,-0.322 1.8123,-0.24383 2.32358,0.15834 0.64159,0.50468 0.61618,1.76285 -0.0458,2.26776 -0.34019,0.25948 -0.75169,0.33757 -1.78976,0.33964 l -0.89164,0.002 0.001,0.38213 c 0.003,1.07535 1.00401,1.56605 2.33971,1.14735 0.25378,-0.0795 0.48777,-0.14506 0.51999,-0.14558 0.0322,-6.1e-4 0.0486,0.15465 0.0364,0.3448 l -0.0222,0.34574 -0.40033,0.1284 c -0.49601,0.15909 -1.24087,0.21409 -1.67347,0.12357 z m 1.19683,-3.08452 c 0.13561,-0.0567 0.28403,-0.17303 0.32982,-0.25859 0.12366,-0.23106 0.10796,-0.70397 -0.0304,-0.9151 -0.15797,-0.2411 -0.392,-0.32498 -0.90116,-0.32301 -0.82653,0.003 -1.29404,0.41045 -1.37533,1.19807 l -0.0415,0.40165 0.88597,0 c 0.59932,0 0.96575,-0.0333 1.13253,-0.10302 z m 9.57573,3.08452 c -0.82403,-0.17242 -1.37823,-0.68939 -1.53174,-1.42885 -0.13643,-0.65718 -0.0626,-2.2358 0.12396,-2.64954 0.18167,-0.40298 0.58745,-0.81094 1.01009,-1.01554 0.66517,-0.322 1.81231,-0.24383 2.32359,0.15834 0.64158,0.50468 0.61617,1.76285 -0.0458,2.26776 -0.3402,0.25948 -0.75169,0.33757 -1.78976,0.33964 l -0.89165,0.002 0.001,0.38213 c 0.003,1.07535 1.00401,1.56605 2.33972,1.14735 0.25377,-0.0795 0.48777,-0.14506 0.51999,-0.14558 0.0322,-6.1e-4 0.0486,0.15465 0.0364,0.3448 l -0.0222,0.34574 -0.40033,0.1284 c -0.49601,0.15909 -1.24087,0.21409 -1.67347,0.12357 z m 1.19683,-3.08452 c 0.1356,-0.0567 0.28402,-0.17303 0.32982,-0.25859 0.12366,-0.23106 0.10795,-0.70397 -0.0304,-0.9151 -0.15797,-0.2411 -0.392,-0.32498 -0.90115,-0.32301 -0.82654,0.003 -1.29405,0.41045 -1.37534,1.19807 l -0.0414,0.40165 0.88597,0 c 0.59932,0 0.96575,-0.0333 1.13253,-0.10302 z m -35.18925,-0.51567 0,-3.60298 0.27295,0.004 0.27296,0.004 1.92887,2.6503 c 1.06087,1.45767 1.95343,2.65135 1.98345,2.65264 0.03,10e-4 0.0546,-1.1932 0.0546,-2.65441 l 0,-2.65674 0.40033,0 0.40033,0 0,3.60298 0,3.60299 -0.27295,-0.004 -0.27296,-0.004 -1.92887,-2.65228 c -1.06087,-1.45876 -1.95343,-2.65265 -1.98346,-2.6531 -0.03,-3.1e-4 -0.0546,1.19472 -0.0546,2.65593 l 0,2.65674 -0.40033,0 -0.40033,0 0,-3.60298 z m 7.35154,1.34657 0,-2.25641 -0.47312,0 -0.47312,0 0,-0.36394 0,-0.36394 0.83706,0 0.83705,0 0,2.62035 0,2.62035 -0.36393,0 -0.36394,0 0,-2.25641 z m 5.45906,-0.36394 0,-2.62035 0.36394,0 0.36394,0 0,0.47312 c 0,0.26021 0.0212,0.47312 0.047,0.47312 0.0259,0 0.20137,-0.14436 0.38999,-0.32079 1.02711,-0.96074 2.26306,-0.92249 2.7082,0.0838 l 0.13879,0.31375 0.4119,-0.36712 c 0.52226,-0.46548 0.96237,-0.67846 1.47094,-0.71181 0.55199,-0.0362 0.98884,0.18892 1.23844,0.63821 0.18099,0.32577 0.18209,0.33926 0.20503,2.49297 l 0.0231,2.16543 -0.4052,0 -0.4052,0 0,-2.00527 c 0,-2.17688 -0.0233,-2.32251 -0.39829,-2.49339 -0.47515,-0.21649 -0.93126,-0.0498 -1.61595,0.59075 l -0.46053,0.4308 0,1.73856 0,1.73855 -0.40033,0 -0.40034,0 0,-1.96888 c 0,-1.6044 -0.0201,-2.00781 -0.10876,-2.1792 -0.27672,-0.53511 -0.81388,-0.58803 -1.47663,-0.14546 -0.24056,0.16064 -0.55546,0.42277 -0.69978,0.58251 l -0.26239,0.29044 0,1.7103 0,1.71029 -0.36394,0 -0.36393,0 0,-2.62035 z m 25.03891,0 0,-2.62035 0.36394,0 0.36394,0 0,0.47312 c 0,0.26021 0.0212,0.47312 0.047,0.47312 0.0259,0 0.20137,-0.14436 0.38999,-0.32079 1.03514,-0.96826 2.24853,-0.92367 2.72203,0.10002 0.14167,0.30629 0.15434,0.47999 0.17673,2.42259 l 0.0241,2.09264 -0.40617,0 -0.40617,0 0,-1.93121 c 0,-2.07206 -0.0332,-2.29809 -0.37245,-2.53571 -0.30401,-0.21294 -0.72441,-0.15285 -1.21295,0.17338 -0.24056,0.16064 -0.55546,0.42277 -0.69977,0.58251 l -0.2624,0.29044 0,1.7103 0,1.71029 -0.36393,0 -0.36394,0 0,-2.62035 z m -30.49797,-4.14889 0,-0.43672 0.36394,0 0.36393,0 0,0.43672 0,0.43673 -0.36393,0 -0.36394,0 0,-0.43673 z m 2.83871,0 0,-0.43672 0.36394,0 0.36394,0 0,0.43672 0,0.43673 -0.36394,0 -0.36394,0 0,-0.43673 z"
       id="path4169"
       inkscape:connector-curvature="0" />
    <g
       id="g4158">
      <path
         sodipodi:nodetypes="ccccc"
         inkscape:connector-curvature="0"
         id="path4171"
         d="M 156.48744,332.3622 125,332.15858 l 0,-4.79638 38.35025,0 z"
         style="fill:#ffffff;fill-opacity:1;fill-rule:evenodd;stroke:none;stroke-width:0.79360151px;stroke-linecap:butt;stroke-linejoin:miter;stroke-opacity:1" />
      <path
         inkscape:connector-curvature="0"
         id="path4175"
         d="m 125,337.3622 0,5 20,0 0,-5 z"
         style="fill:#ffffff;fill-opacity:1;fill-rule:evenodd;stroke:none;stroke-width:1px;stroke-linecap:butt;stroke-linejoin:miter;stroke-opacity:1" />
      <path
         inkscape:connector-curvature="0"
         id="path4207"
         d="m 125,347.3622 0,5 25,0 -4,-5 z"
         style="fill:#ffffff;fill-opacity:1;fill-rule:evenodd;stroke:none;stroke-width:1px;stroke-linecap:butt;stroke-linejoin:miter;stroke-opacity:1" />
      <path
         inkscape:connector-curvature="0"
         id="path4175-0"
         d="m 125,357.3622 0,5 20,0 0,-5 z"
         style="fill:#ffffff;fill-opacity:1;fill-rule:evenodd;stroke:none;stroke-width:1px;stroke-linecap:butt;stroke-linejoin:miter;stroke-opacity:1" />
      <path
         style="fill:#ffffff;fill-opacity:1;fill-rule:evenodd;stroke:none;stroke-width:1px;stroke-linecap:butt;stroke-linejoin:miter;stroke-opacity:1"
         d="m 125,367.3622 0,5 20,0 0,-5 z"
         id="path4224"
         inkscape:connector-curvature="0" />
    </g>
    <text
       xml:space="preserve"
       style="font-style:normal;font-weight:normal;font-size:15px;line-height:125%;font-family:sans-serif;letter-spacing:0px;word-spacing:0px;fill:#000000;fill-opacity:1;stroke:none;stroke-width:1px;stroke-linecap:butt;stroke-linejoin:miter;stroke-opacity:1"
       x="124.29931"
       y="323.67569"
       id="text4243"
       sodipodi:linespacing="125%"><tspan
         sodipodi:role="line"
         id="tspan4245"
         x="124.29931"
         y="323.67569"
         style="font-style:normal;font-variant:normal;font-weight:normal;font-stretch:normal;font-size:7.5px;font-family:sans-serif;-inkscape-font-specification:sans-serif;fill:#ffffff;fill-opacity:1">m +NAP</tspan></text>
    <text
       xml:space="preserve"
       style="font-style:normal;font-weight:normal;font-size:15px;line-height:125%;font-family:sans-serif;letter-spacing:0px;word-spacing:0px;fill:#000000;fill-opacity:1;stroke:none;stroke-width:1px;stroke-linecap:butt;stroke-linejoin:miter;stroke-opacity:1"
       x="167.79822"
       y="323.82669"
       id="text4243-0"
       sodipodi:linespacing="125%"><tspan
         sodipodi:role="line"
         id="tspan4245-4"
         x="167.79822"
         y="323.82669"
         style="font-style:normal;font-variant:normal;font-weight:normal;font-stretch:normal;font-size:10px;font-family:sans-serif;-inkscape-font-specification:sans-serif;fill:#ffffff;fill-opacity:1">14.00</tspan></text>
    <g
       id="g4165"
       transform="translate(0,50)">
      <path
         style="fill:#ffffff;fill-opacity:1;fill-rule:evenodd;stroke:none;stroke-width:0.79360151px;stroke-linecap:butt;stroke-linejoin:miter;stroke-opacity:1"
         d="M 156.48744,332.3622 125,332.15858 l 0,-4.79638 38.35025,0 z"
         id="path4167"
         inkscape:connector-curvature="0"
         sodipodi:nodetypes="ccccc" />
      <path
         style="fill:#ffffff;fill-opacity:1;fill-rule:evenodd;stroke:none;stroke-width:1px;stroke-linecap:butt;stroke-linejoin:miter;stroke-opacity:1"
         d="m 125,337.3622 0,5 20,0 0,-5 z"
         id="path4170"
         inkscape:connector-curvature="0" />
      <path
         style="fill:#ffffff;fill-opacity:1;fill-rule:evenodd;stroke:none;stroke-width:1px;stroke-linecap:butt;stroke-linejoin:miter;stroke-opacity:1"
         d="m 125,347.3622 0,5 25,0 -4,-5 z"
         id="path4172"
         inkscape:connector-curvature="0" />
      <path
         style="fill:#ffffff;fill-opacity:1;fill-rule:evenodd;stroke:none;stroke-width:1px;stroke-linecap:butt;stroke-linejoin:miter;stroke-opacity:1"
         d="m 125,357.3622 0,5 20,0 0,-5 z"
         id="path4174"
         inkscape:connector-curvature="0" />
      <path
         inkscape:connector-curvature="0"
         id="path4176"
         d="m 125,367.3622 0,5 20,0 0,-5 z"
         style="fill:#ffffff;fill-opacity:1;fill-rule:evenodd;stroke:none;stroke-width:1px;stroke-linecap:butt;stroke-linejoin:miter;stroke-opacity:1" />
    </g>
    <g
       transform="translate(0,100)"
       id="g4192">
      <path
         sodipodi:nodetypes="ccccc"
         inkscape:connector-curvature="0"
         id="path4194"
         d="M 156.48744,332.3622 125,332.15858 l 0,-4.79638 38.35025,0 z"
         style="fill:#ffffff;fill-opacity:1;fill-rule:evenodd;stroke:none;stroke-width:0.79360151px;stroke-linecap:butt;stroke-linejoin:miter;stroke-opacity:1" />
      <path
         inkscape:connector-curvature="0"
         id="path4196"
         d="m 125,337.3622 0,5 20,0 0,-5 z"
         style="fill:#ffffff;fill-opacity:1;fill-rule:evenodd;stroke:none;stroke-width:1px;stroke-linecap:butt;stroke-linejoin:miter;stroke-opacity:1" />
      <path
         inkscape:connector-curvature="0"
         id="path4198"
         d="m 125,347.3622 0,5 25,0 -4,-5 z"
         style="fill:#ffffff;fill-opacity:1;fill-rule:evenodd;stroke:none;stroke-width:1px;stroke-linecap:butt;stroke-linejoin:miter;stroke-opacity:1" />
      <path
         inkscape:connector-curvature="0"
         id="path4200"
         d="m 125,357.3622 0,5 20,0 0,-5 z"
         style="fill:#ffffff;fill-opacity:1;fill-rule:evenodd;stroke:none;stroke-width:1px;stroke-linecap:butt;stroke-linejoin:miter;stroke-opacity:1" />
      <path
         style="fill:#ffffff;fill-opacity:1;fill-rule:evenodd;stroke:none;stroke-width:1px;stroke-linecap:butt;stroke-linejoin:miter;stroke-opacity:1"
         d="m 125,367.3622 0,5 20,0 0,-5 z"
         id="path4202"
         inkscape:connector-curvature="0" />
    </g>
    <g
       id="g4204"
       transform="translate(0,150)">
      <path
         style="fill:#ffffff;fill-opacity:1;fill-rule:evenodd;stroke:none;stroke-width:0.79360151px;stroke-linecap:butt;stroke-linejoin:miter;stroke-opacity:1"
         d="M 156.48744,332.3622 125,332.15858 l 0,-4.79638 38.35025,0 z"
         id="path4206"
         inkscape:connector-curvature="0"
         sodipodi:nodetypes="ccccc" />
      <path
         style="fill:#ffffff;fill-opacity:1;fill-rule:evenodd;stroke:none;stroke-width:1px;stroke-linecap:butt;stroke-linejoin:miter;stroke-opacity:1"
         d="m 125,337.3622 0,5 20,0 0,-5 z"
         id="path4208"
         inkscape:connector-curvature="0" />
      <path
         style="fill:#ffffff;fill-opacity:1;fill-rule:evenodd;stroke:none;stroke-width:1px;stroke-linecap:butt;stroke-linejoin:miter;stroke-opacity:1"
         d="m 125,347.3622 0,5 25,0 -4,-5 z"
         id="path4210"
         inkscape:connector-curvature="0" />
      <path
         style="fill:#ffffff;fill-opacity:1;fill-rule:evenodd;stroke:none;stroke-width:1px;stroke-linecap:butt;stroke-linejoin:miter;stroke-opacity:1"
         d="m 125,357.3622 0,5 20,0 0,-5 z"
         id="path4212"
         inkscape:connector-curvature="0" />
      <path
         inkscape:connector-curvature="0"
         id="path4214"
         d="m 125,367.3622 0,5 20,0 0,-5 z"
         style="fill:#ffffff;fill-opacity:1;fill-rule:evenodd;stroke:none;stroke-width:1px;stroke-linecap:butt;stroke-linejoin:miter;stroke-opacity:1" />
    </g>
    <g
       transform="translate(0,200)"
       id="g4216">
      <path
         sodipodi:nodetypes="ccccc"
         inkscape:connector-curvature="0"
         id="path4218"
         d="M 156.48744,332.3622 125,332.15858 l 0,-4.79638 38.35025,0 z"
         style="fill:#ffffff;fill-opacity:1;fill-rule:evenodd;stroke:none;stroke-width:0.79360151px;stroke-linecap:butt;stroke-linejoin:miter;stroke-opacity:1" />
      <path
         inkscape:connector-curvature="0"
         id="path4220"
         d="m 125,337.3622 0,5 20,0 0,-5 z"
         style="fill:#ffffff;fill-opacity:1;fill-rule:evenodd;stroke:none;stroke-width:1px;stroke-linecap:butt;stroke-linejoin:miter;stroke-opacity:1" />
      <path
         inkscape:connector-curvature="0"
         id="path4222"
         d="m 125,347.3622 0,5 25,0 -4,-5 z"
         style="fill:#ffffff;fill-opacity:1;fill-rule:evenodd;stroke:none;stroke-width:1px;stroke-linecap:butt;stroke-linejoin:miter;stroke-opacity:1" />
      <path
         inkscape:connector-curvature="0"
         id="path4225"
         d="m 125,357.3622 0,5 20,0 0,-5 z"
         style="fill:#ffffff;fill-opacity:1;fill-rule:evenodd;stroke:none;stroke-width:1px;stroke-linecap:butt;stroke-linejoin:miter;stroke-opacity:1" />
      <path
         style="fill:#ffffff;fill-opacity:1;fill-rule:evenodd;stroke:none;stroke-width:1px;stroke-linecap:butt;stroke-linejoin:miter;stroke-opacity:1"
         d="m 125,367.3622 0,5 20,0 0,-5 z"
         id="path4227"
         inkscape:connector-curvature="0" />
    </g>
    <g
       id="g4229"
       transform="translate(0,250)">
      <path
         style="fill:#ffffff;fill-opacity:1;fill-rule:evenodd;stroke:none;stroke-width:0.79360151px;stroke-linecap:butt;stroke-linejoin:miter;stroke-opacity:1"
         d="M 156.48744,332.3622 125,332.15858 l 0,-4.79638 38.35025,0 z"
         id="path4231"
         inkscape:connector-curvature="0"
         sodipodi:nodetypes="ccccc" />
      <path
         style="fill:#ffffff;fill-opacity:1;fill-rule:evenodd;stroke:none;stroke-width:1px;stroke-linecap:butt;stroke-linejoin:miter;stroke-opacity:1"
         d="m 125,337.3622 0,5 20,0 0,-5 z"
         id="path4233"
         inkscape:connector-curvature="0" />
      <path
         style="fill:#ffffff;fill-opacity:1;fill-rule:evenodd;stroke:none;stroke-width:1px;stroke-linecap:butt;stroke-linejoin:miter;stroke-opacity:1"
         d="m 125,347.3622 0,5 25,0 -4,-5 z"
         id="path4235"
         inkscape:connector-curvature="0" />
      <path
         style="fill:#ffffff;fill-opacity:1;fill-rule:evenodd;stroke:none;stroke-width:1px;stroke-linecap:butt;stroke-linejoin:miter;stroke-opacity:1"
         d="m 125,357.3622 0,5 20,0 0,-5 z"
         id="path4237"
         inkscape:connector-curvature="0" />
      <path
         inkscape:connector-curvature="0"
         id="path4239"
         d="m 125,367.3622 0,5 20,0 0,-5 z"
         style="fill:#ffffff;fill-opacity:1;fill-rule:evenodd;stroke:none;stroke-width:1px;stroke-linecap:butt;stroke-linejoin:miter;stroke-opacity:1" />
    </g>
    <g
       transform="translate(0,300.1661)"
       id="g4241">
      <path
         sodipodi:nodetypes="ccccc"
         inkscape:connector-curvature="0"
         id="path4243"
         d="M 156.48744,332.3622 125,332.15858 l 0,-4.79638 38.35025,0 z"
         style="fill:#ffffff;fill-opacity:1;fill-rule:evenodd;stroke:none;stroke-width:0.79360151px;stroke-linecap:butt;stroke-linejoin:miter;stroke-opacity:1" />
      <path
         inkscape:connector-curvature="0"
         id="path4245"
         d="m 125,337.3622 0,5 20,0 0,-5 z"
         style="fill:#ffffff;fill-opacity:1;fill-rule:evenodd;stroke:none;stroke-width:1px;stroke-linecap:butt;stroke-linejoin:miter;stroke-opacity:1" />
      <path
         inkscape:connector-curvature="0"
         id="path4247"
         d="m 125,347.3622 0,5 25,0 -4,-5 z"
         style="fill:#ffffff;fill-opacity:1;fill-rule:evenodd;stroke:none;stroke-width:1px;stroke-linecap:butt;stroke-linejoin:miter;stroke-opacity:1" />
      <path
         inkscape:connector-curvature="0"
         id="path4249"
         d="m 125,357.3622 0,5 20,0 0,-5 z"
         style="fill:#ffffff;fill-opacity:1;fill-rule:evenodd;stroke:none;stroke-width:1px;stroke-linecap:butt;stroke-linejoin:miter;stroke-opacity:1" />
      <path
         style="fill:#ffffff;fill-opacity:1;fill-rule:evenodd;stroke:none;stroke-width:1px;stroke-linecap:butt;stroke-linejoin:miter;stroke-opacity:1"
         d="m 125,367.3622 0,5 20,0 0,-5 z"
         id="path4251"
         inkscape:connector-curvature="0" />
    </g>
    <text
       sodipodi:linespacing="125%"
       id="text4253"
       y="375.25525"
       x="167.79822"
       style="font-style:normal;font-weight:normal;font-size:15px;line-height:125%;font-family:sans-serif;letter-spacing:0px;word-spacing:0px;fill:#000000;fill-opacity:1;stroke:none;stroke-width:1px;stroke-linecap:butt;stroke-linejoin:miter;stroke-opacity:1"
       xml:space="preserve"><tspan
         style="font-style:normal;font-variant:normal;font-weight:normal;font-stretch:normal;font-size:10px;font-family:sans-serif;-inkscape-font-specification:sans-serif;fill:#ffffff;fill-opacity:1"
         y="375.25525"
         x="167.79822"
         id="tspan4255"
         sodipodi:role="line">13.00</tspan></text>
    <text
       xml:space="preserve"
       style="font-style:normal;font-weight:normal;font-size:15px;line-height:125%;font-family:sans-serif;letter-spacing:0px;word-spacing:0px;fill:#000000;fill-opacity:1;stroke:none;stroke-width:1px;stroke-linecap:butt;stroke-linejoin:miter;stroke-opacity:1"
       x="167.79822"
       y="425.25781"
       id="text4257"
       sodipodi:linespacing="125%"><tspan
         sodipodi:role="line"
         id="tspan4259"
         x="167.79822"
         y="425.25781"
         style="font-style:normal;font-variant:normal;font-weight:normal;font-stretch:normal;font-size:10px;font-family:sans-serif;-inkscape-font-specification:sans-serif;fill:#ffffff;fill-opacity:1">12.00</tspan></text>
    <text
       sodipodi:linespacing="125%"
       id="text4261"
       y="474.90067"
       x="167.79822"
       style="font-style:normal;font-weight:normal;font-size:15px;line-height:125%;font-family:sans-serif;letter-spacing:0px;word-spacing:0px;fill:#000000;fill-opacity:1;stroke:none;stroke-width:1px;stroke-linecap:butt;stroke-linejoin:miter;stroke-opacity:1"
       xml:space="preserve"><tspan
         style="font-style:normal;font-variant:normal;font-weight:normal;font-stretch:normal;font-size:10px;font-family:sans-serif;-inkscape-font-specification:sans-serif;fill:#ffffff;fill-opacity:1"
         y="474.90067"
         x="167.79822"
         id="tspan4263"
         sodipodi:role="line">11.00</tspan></text>
    <text
       sodipodi:linespacing="125%"
       id="text4265"
       y="524.18384"
       x="167.79822"
       style="font-style:normal;font-weight:normal;font-size:15px;line-height:125%;font-family:sans-serif;letter-spacing:0px;word-spacing:0px;fill:#000000;fill-opacity:1;stroke:none;stroke-width:1px;stroke-linecap:butt;stroke-linejoin:miter;stroke-opacity:1"
       xml:space="preserve"><tspan
         style="font-style:normal;font-variant:normal;font-weight:normal;font-stretch:normal;font-size:10px;font-family:sans-serif;-inkscape-font-specification:sans-serif;fill:#ffffff;fill-opacity:1"
         y="524.18384"
         x="167.79822"
         id="tspan4267"
         sodipodi:role="line">10.00</tspan></text>
    <text
       xml:space="preserve"
       style="font-style:normal;font-weight:normal;font-size:15px;line-height:125%;font-family:sans-serif;letter-spacing:0px;word-spacing:0px;fill:#000000;fill-opacity:1;stroke:none;stroke-width:1px;stroke-linecap:butt;stroke-linejoin:miter;stroke-opacity:1"
       x="169.58394"
       y="575.61237"
       id="text4269"
       sodipodi:linespacing="125%"><tspan
         sodipodi:role="line"
         id="tspan4271"
         x="169.58394"
         y="575.61237"
         style="font-style:normal;font-variant:normal;font-weight:normal;font-stretch:normal;font-size:10px;font-family:sans-serif;-inkscape-font-specification:sans-serif;fill:#ffffff;fill-opacity:1"> 9.00</tspan></text>
    <text
       sodipodi:linespacing="125%"
       id="text4273"
       y="625.61493"
       x="172.08394"
       style="font-style:normal;font-weight:normal;font-size:15px;line-height:125%;font-family:sans-serif;letter-spacing:0px;word-spacing:0px;fill:#000000;fill-opacity:1;stroke:none;stroke-width:1px;stroke-linecap:butt;stroke-linejoin:miter;stroke-opacity:1"
       xml:space="preserve"><tspan
         style="font-style:normal;font-variant:normal;font-weight:normal;font-stretch:normal;font-size:10px;font-family:sans-serif;-inkscape-font-specification:sans-serif;fill:#ffffff;fill-opacity:1"
         y="625.61493"
         x="172.08394"
         id="tspan4275"
         sodipodi:role="line">8.00</tspan></text>
  </g>
</svg>
